# xmcd
#
# Track frame offsets: 
#        150
#        42729
#        101476
#        156828
#        204421
#        233212
#        291195
#
# Disc length: 4556 seconds
#
# Revision: 1
# Processed by: cddbd v1.5.2PL0 Copyright (c) Steve Scherf et al.
# Submitted via: ExactAudioCopy v0.99pb5
#
DISCID=6011ca07
DTITLE=Dexter Gordon, George Duke, Donald Garrett, Oliver Johnson - Li
DTITLE=ve At The Both And Club San Francisco (70.8.7)
DYEAR=1970
DGENRE=Jazz
TTITLE0=Fried Bananas <D. Gordon>
TTITLE1=Blue Monk <T. Monk>
TTITLE2=There Will Never Be Another You <M. Gordon, H. Warren>
TTITLE3=The Shadow Of Your Smile <J. Mandel, P. F. Webster>
TTITLE4=Wee Dot <J. J. Johnson>
TTITLE5=The Rainbow People <D. Gordon>
TTITLE6=Montmartre <D. Gordon>
EXTD=YEAR: 1970
EXTT0=
EXTT1=
EXTT2=
EXTT3=
EXTT4=
EXTT5=
EXTT6=
PLAYORDER=
